<mxfile host="app.diagrams.net" modified="2023-07-10T06:15:52.051Z" agent="Mozilla/5.0 (Windows NT 10.0; Win64; x64) AppleWebKit/537.36 (KHTML, like Gecko) Chrome/114.0.0.0 Safari/537.36" version="21.6.1" etag="lA-U9WdPgpBZMEGf2nAZ" type="github">
  <diagram name="Page-1" id="pANa6QSsuT0SR9jFWPj6">
    <mxGraphModel>
      <root>
        <mxCell id="0" />
        <mxCell id="1" parent="0" />
      </root>
    </mxGraphModel>
  </diagram>
</mxfile>
